# xmcd
#
# Track frame offsets: 
#        150
#        11072
#        27862
#        41737
#        59157
#        82452
#        106987
#        121162
#        143720
#        161602
#        182122
#        198285
#        217525
#
# Disc length: 3233 seconds
#
# Revision: 7
# Processed by: cddbd v1.5.2PL0 Copyright (c) Steve Scherf et al.
# Submitted via: ExactAudioCopyFreeDBPlugin 1.0
#
DISCID=b40c9f0d
DTITLE=夏韶聲 - 今天昨天
DYEAR=1994
DGENRE=Pop
TTITLE0=今天昨天
TTITLE1=童年時
TTITLE2=想起你
TTITLE3=Rosalie
TTITLE4=Fever
TTITLE5=黃昏的過客
TTITLE6=天堂夢
TTITLE7=交叉點
TTITLE8=今天昨天
TTITLE9=偏激的借口
TTITLE10=這夜誰躺在妳旁
TTITLE11=救救這地球
TTITLE12=長街故事
EXTD=YEAR: 1994
EXTT0=
EXTT1=
EXTT2=
EXTT3=
EXTT4=
EXTT5=
EXTT6=
EXTT7=
EXTT8=
EXTT9=
EXTT10=
EXTT11=
EXTT12=
PLAYORDER=
